<svg xmlns="http://www.w3.org/2000/svg" viewBox="0 0 1344 273.96"><defs><style>.cls-1{fill:#fff;}</style></defs><title>curve</title><g id="Layer_2" data-name="Layer 2"><g id="Layer_1-2" data-name="Layer 1"><path class="cls-1" d="M0,119c20.58,32.39,44.76,61.73,74,86.68,38.61,32.91,82.09,55.8,132.65,63.93,23.89,3.84,47.74,3,71.68.09,39.48-4.74,79-9,118.53-13.52q46.13-5.25,92.25-10.57,54.79-6.24,109.61-12.43,50.6-5.76,101.17-11.59,63.5-7.23,127-14.41,59-6.72,118-13.48c39.68-4.52,79.28-10,119.06-13.33,94.26-8,171-49.57,233.7-119.07A467.08,467.08,0,0,0,1344,0V274H0Z"/></g></g></svg>